<?xml version="1.0" encoding="UTF-8"?>
<!DOCTYPE svg PUBLIC "-//W3C//DTD SVG 1.1//EN" "http://www.w3.org/Graphics/SVG/1.1/DTD/svg11.dtd">
<!-- Creator: CorelDRAW X7 -->
<?xml-stylesheet href="hotr-logo.css" type="text/css"?>
<svg xmlns="http://www.w3.org/2000/svg" xml:space="preserve" width="148mm" height="105mm" version="1.1" style="shape-rendering:geometricPrecision; text-rendering:geometricPrecision; image-rendering:optimizeQuality; fill-rule:evenodd; clip-rule:evenodd"
viewBox="0 0 14800 10500"
 xmlns:xlink="http://www.w3.org/1999/xlink">
 <g id="Layer_x0020_1">
  <metadata id="CorelCorpID_0Corel-Layer"/>
  <g id="_2446216082144">
   <path class="fil0" d="M57268 -190c0,3 1,3 1,5 4,0 9,-1 13,-2 1,-1 3,-1 4,-2l2 -1c0,0 0,0 0,0l4 -1c0,0 1,-1 1,-1 2,0 3,-1 4,-2 1,0 3,-1 4,-1 0,1 0,4 0,4 0,1 0,1 -1,1 -2,1 -5,2 -8,4l-7 2 -8 2c-2,1 -4,1 -6,1 -4,1 -14,1 -18,1 -5,0 -6,0 -6,5 0,1 0,1 1,1 1,0 3,0 3,0 1,1 0,3 1,4 0,0 0,0 0,0 0,0 0,0 0,0l1 0c0,0 1,0 1,0 0,0 1,0 1,0l6 -1c3,-1 7,-1 10,-1l5 -1c7,0 10,0 17,0 3,0 10,0 13,0 3,0 7,1 10,1 1,0 1,0 2,0l8 1c1,0 2,0 2,0 2,0 7,1 8,1 0,-1 0,-1 0,-2 0,-1 0,-2 0,-2l6 0c1,-7 -4,-6 -6,-6 -4,-2 -5,-2 -8,-5 0,0 -1,-1 -1,-1 -1,0 -2,-1 -2,-1 -4,-3 -4,-3 -7,-5 -2,-2 -7,-2 -9,-1 -1,0 -2,0 -3,0l0 -14 3 7c1,0 1,0 1,1 0,0 0,1 0,1 3,0 5,0 8,1 0,0 3,1 3,2 1,0 1,0 2,0 0,-2 -3,-7 -3,-9 -3,-4 -6,-8 -10,-10 -1,-1 -1,-1 -3,-2 -1,0 0,0 -2,0 -5,-3 -13,-3 -18,-1 -1,1 -1,1 -2,1l-1 0c-1,1 -3,2 -4,3 -3,2 -6,5 -8,8 0,0 0,1 0,1 -3,4 -4,9 -4,14z"/>
   <path class="fil0" d="M57221 -153l22 2c2,1 3,0 4,1 2,0 4,0 6,0 9,0 21,0 30,0 1,-1 2,0 3,-1 1,0 2,0 3,0l6 0c2,-1 10,-1 13,-1 2,0 4,0 6,0 3,0 21,0 23,0 2,0 4,0 5,0 5,0 10,1 14,1l8 0c1,0 2,0 2,0l-1 -1c-1,-3 -2,0 -4,-3 -2,-4 -5,-5 -10,-7l-6 -2 -7 -1c-1,0 -2,0 -3,0 -1,-1 -1,-1 -2,-1l-8 -1c-2,0 -13,-1 -15,-1 -2,0 -4,-1 -6,-1 -10,0 -15,0 -25,0l-5 1c-2,0 -3,0 -5,0 -3,1 -6,1 -9,1 -4,1 -7,1 -10,2l-13 2c-4,1 -3,1 -5,3 -2,3 -2,3 -4,4l-5 0c-1,1 -1,1 -2,2 0,0 0,1 0,1z"/>
  </g>
  <polygon class="fil1" points="57400,-202 57400,-187 57395,-187 57395,-193 57392,-193 57392,-187 57387,-187 57387,-202 57392,-202 57392,-196 57395,-196 57395,-202 "/>
  <path id="1" class="fil1" d="M57409 -187c-2,0 -4,0 -5,-2 -2,-1 -2,-3 -2,-5 0,-3 0,-5 2,-6 1,-2 3,-2 5,-2 2,0 4,0 5,2 2,1 2,3 2,5 0,3 0,5 -2,6 -1,2 -3,2 -5,2zm0 -3c1,0 1,0 2,-1 0,-1 0,-2 0,-4 0,-2 0,-4 -2,-4 -1,0 -2,2 -2,5 0,3 1,4 2,4z"/>
  <path id="2" class="fil1" d="M57431 -202l0 10c0,2 -1,3 -2,4 -1,1 -3,1 -5,1 -1,0 -3,0 -4,-1 -1,-1 -2,-2 -2,-4l0 -10 5 0 0 10c0,0 0,1 0,1 1,1 1,1 2,1 0,0 1,0 1,0 1,-1 1,-1 1,-1 0,-1 0,-1 0,-2l0 -9 4 0z"/>
  <path id="3" class="fil1" d="M57432 -191l4 -1c0,1 1,2 3,2 1,0 1,0 1,-1 0,0 0,-1 0,-1 0,0 -1,0 -1,0 -3,-1 -5,-2 -6,-2 0,-1 -1,-2 -1,-3 0,-2 1,-3 2,-4 1,-1 3,-1 5,-1 3,0 5,1 6,3l-4 2c0,-1 -1,-2 -2,-2 -1,0 -2,0 -2,1 0,0 0,1 0,1 1,0 1,0 2,0 2,1 3,1 4,1 0,0 1,1 1,2 1,0 1,1 1,2 0,2 0,3 -2,4 -1,1 -3,1 -5,1 -3,0 -6,-1 -6,-4z"/>
  <polygon id="4" class="fil1" points="57459,-190 57459,-187 57447,-187 57447,-202 57459,-202 57459,-199 57452,-199 57452,-196 57457,-196 57457,-193 57452,-193 57452,-190 "/>
  <path id="5" class="fil1" d="M57473 -187c-2,0 -4,0 -6,-2 -1,-1 -2,-3 -2,-5 0,-3 1,-5 2,-6 2,-2 3,-2 6,-2 2,0 4,0 5,2 1,1 2,3 2,5 0,3 -1,5 -2,6 -1,2 -3,2 -5,2zm0 -3c0,0 1,0 1,-1 1,-1 1,-2 1,-4 0,-2 -1,-4 -2,-4 -2,0 -3,2 -3,5 0,3 1,4 3,4z"/>
  <path id="6" class="fil1" d="M57495 -187l-4 0 -4 -7c-1,0 -1,-1 -2,-3 1,1 1,2 1,3l0 7 -4 0 0 -15 4 0 4 6c1,1 1,2 2,2 -1,-1 -1,-2 -1,-4l0 -4 4 0 0 15z"/>
  <polygon id="7" class="fil1" points="57510,-198 57510,-187 57505,-187 57505,-198 57502,-198 57502,-202 57513,-202 57513,-198 "/>
  <polygon id="8" class="fil1" points="57527,-202 57527,-187 57522,-187 57522,-193 57519,-193 57519,-187 57514,-187 57514,-202 57519,-202 57519,-196 57522,-196 57522,-202 "/>
  <polygon id="9" class="fil1" points="57541,-190 57541,-187 57530,-187 57530,-202 57541,-202 57541,-199 57534,-199 57534,-196 57540,-196 57540,-193 57534,-193 57534,-190 "/>
  <path id="10" class="fil1" d="M57562 -187l-5 0 -2 -6 -2 0 0 6 -4 0 0 -15 8 0c2,0 3,0 4,1 1,1 1,2 1,3 0,1 0,2 0,3 -1,0 -1,1 -2,2l2 6zm-9 -9l2 0c1,0 2,0 2,0 0,0 0,-1 0,-1 0,-1 0,-2 -1,-2l-3 0 0 3z"/>
  <path id="11" class="fil1" d="M57571 -187c-2,0 -4,0 -5,-2 -2,-1 -2,-3 -2,-5 0,-3 0,-5 2,-6 1,-2 3,-2 5,-2 2,0 4,0 5,2 2,1 2,3 2,5 0,3 0,5 -2,6 -1,2 -3,2 -5,2zm0 -3c1,0 1,0 2,-1 0,-1 0,-2 0,-4 0,-2 0,-4 -2,-4 -1,0 -2,2 -2,5 0,3 1,4 2,4z"/>
  <path id="12" class="fil1" d="M57589 -193l4 1c0,2 -1,3 -2,4 -1,1 -3,1 -5,1 -2,0 -3,0 -5,-2 -1,-1 -1,-3 -1,-5 0,-3 0,-5 1,-6 2,-2 3,-2 5,-2 2,0 4,0 5,1 1,2 2,3 2,5l-4 0c0,-1 -1,-2 -1,-2 0,-1 -1,-1 -1,-1 -2,0 -3,2 -3,5 0,1 1,2 1,3 0,1 1,1 2,1 1,0 1,-1 2,-3z"/>
  <polygon id="13" class="fil1" points="57608,-187 57603,-187 57601,-193 57599,-190 57599,-187 57595,-187 57595,-202 57599,-202 57599,-196 57603,-202 57607,-202 57604,-196 "/>
  <polygon class="fil1" points="57389,-166 57390,-166 57391,-176 57395,-176 57395,-177 57387,-177 57387,-176 57390,-176 "/>
  <polygon id="1" class="fil1" points="57396,-166 57397,-166 57397,-172 57404,-172 57403,-166 57404,-166 57405,-177 57404,-177 57404,-173 57397,-173 57398,-177 57397,-177 "/>
  <polygon id="2" class="fil1" points="57407,-166 57414,-166 57414,-167 57408,-167 57408,-171 57414,-171 57414,-172 57409,-172 57409,-176 57415,-176 57415,-177 57408,-177 "/>
  <polygon id="3" class="fil1" points="57422,-166 57423,-166 57424,-176 57426,-166 57427,-166 57431,-176 57430,-166 57431,-166 57433,-177 57431,-177 57427,-168 57425,-177 57423,-177 "/>
  <polygon id="4" class="fil1" points="57434,-166 57435,-166 57437,-177 57436,-177 "/>
  <path id="5" class="fil1" d="M57438 -170l0 0c0,2 0,3 1,3 0,1 1,1 3,1 1,0 2,0 3,-1 0,0 1,-1 1,-2 0,-1 0,-2 -1,-2 0,-1 -1,-1 -2,-1l-1 -1c-1,0 -1,0 -2,0 0,-1 0,-1 0,-2 0,0 0,-1 1,-1 0,-1 1,-1 2,-1 1,0 1,1 2,1 0,0 0,1 0,2l1 0c0,-1 0,-2 0,-3 -1,0 -2,-1 -3,-1 -1,0 -2,1 -3,1 -1,1 -1,1 -1,2 0,1 0,2 0,2 1,1 2,1 3,1l1 1c1,0 1,0 1,0 1,1 1,1 1,2 0,1 -1,1 -1,2 -1,0 -1,0 -2,0 -1,0 -2,0 -2,-1 -1,0 -1,-1 -1,-2l-1 0z"/>
  <path id="6" class="fil1" d="M57448 -170l0 0c0,2 0,3 1,3 0,1 1,1 3,1 1,0 2,0 2,-1 1,0 2,-1 2,-2 0,-1 0,-2 -1,-2 0,-1 -1,-1 -2,-1l-2 -1c0,0 -1,0 -1,0 0,-1 0,-1 0,-2 0,0 0,-1 1,-1 0,-1 1,-1 2,-1 1,0 1,1 2,1 0,0 0,1 0,2l1 0c0,-1 0,-2 -1,-3 0,0 -1,-1 -2,-1 -1,0 -2,1 -3,1 -1,1 -1,1 -1,2 0,1 0,2 0,2 1,1 1,1 2,1l1 1c1,0 2,0 2,0 1,1 1,1 1,2 0,1 -1,1 -1,2 -1,0 -1,0 -2,0 -1,0 -2,0 -3,-1 0,0 0,-1 0,-2l-1 0z"/>
  <polygon id="7" class="fil1" points="57458,-166 57459,-166 57460,-177 57459,-177 "/>
  <path id="8" class="fil1" d="M57462 -172c0,2 0,3 1,5 0,1 2,1 3,1 1,0 3,0 4,-1 1,-2 1,-3 2,-5 0,-2 0,-3 -1,-4 -1,-1 -2,-2 -3,-2 -2,0 -3,1 -4,2 -1,1 -2,2 -2,4zm1 0c0,-1 1,-3 2,-3 0,-1 1,-2 2,-2 2,0 2,1 3,2 1,0 1,2 1,3 -1,2 -1,3 -2,4 -1,1 -2,1 -3,1 -1,0 -2,0 -2,-1 -1,-1 -1,-2 -1,-4z"/>
  <polygon id="9" class="fil1" points="57474,-166 57474,-166 57476,-176 57480,-166 57481,-166 57483,-177 57482,-177 57480,-168 57476,-177 57475,-177 57473,-166 "/>
  <polygon id="10" class="fil1" points="57489,-166 57490,-166 57491,-172 57497,-172 57497,-166 57498,-166 57499,-177 57498,-177 57497,-173 57491,-173 57492,-177 57491,-177 "/>
  <path id="11" class="fil1" d="M57501 -172c-1,2 0,3 0,5 1,1 2,1 4,1 1,0 2,0 3,-1 1,-2 2,-3 2,-5 1,-2 0,-3 0,-4 -1,-1 -2,-2 -4,-2 -1,0 -2,1 -3,2 -1,1 -2,2 -2,4zm1 0c0,-1 0,-3 1,-3 1,-1 2,-2 3,-2 1,0 2,1 3,2 0,0 1,2 0,3 0,2 0,3 -1,4 -1,1 -2,1 -3,1 -1,0 -2,0 -3,-1 0,-1 -1,-2 0,-4z"/>
  <path id="12" class="fil1" d="M57513 -177l0 7c-1,1 0,2 0,3 1,1 2,1 3,1 1,0 2,0 3,-1 1,-1 2,-2 2,-3l1 -7 -1 0 -1 7c0,1 -1,2 -1,2 -1,1 -2,1 -3,1 -1,0 -2,0 -2,-1 -1,0 -1,-1 0,-2l0 -7 -1 0z"/>
  <path id="13" class="fil1" d="M57523 -170l0 0c0,2 0,3 1,3 0,1 1,1 3,1 1,0 2,0 3,-1 0,0 1,-1 1,-2 0,-1 0,-2 -1,-2 0,-1 -1,-1 -2,-1l-1 -1c-1,0 -1,0 -2,0 0,-1 0,-1 0,-2 0,0 1,-1 1,-1 1,-1 1,-1 2,-1 1,0 1,1 2,1 0,0 0,1 0,2l1 0c1,-1 0,-2 0,-3 -1,0 -2,-1 -3,-1 -1,0 -2,1 -3,1 0,1 -1,1 -1,2 0,1 0,2 1,2 0,1 1,1 2,1l1 1c1,0 1,0 2,0 0,1 0,1 0,2 0,1 0,1 -1,2 -1,0 -1,0 -2,0 -1,0 -2,0 -2,-1 -1,0 -1,-1 -1,-2l-1 0z"/>
  <polygon id="14" class="fil1" points="57533,-166 57540,-166 57541,-167 57534,-167 57535,-171 57540,-171 57541,-172 57535,-172 57535,-176 57542,-176 57542,-177 57535,-177 "/>
  <polygon id="15" class="fil1" points="57548,-166 57549,-166 57549,-170 57552,-172 57555,-166 57556,-166 57552,-173 57557,-177 57556,-177 57550,-171 57550,-177 57549,-177 "/>
  <path id="16" class="fil1" d="M57557 -166l1 0 2 -4 5 0 0 4 1 0 -2 -11 -2 0 -5 11zm3 -5l3 -5 1 5 -4 0z"/>
  <path id="17" class="fil1" d="M57572 -177l-2 0 -2 11 3 0c1,0 2,0 2,0 1,0 1,-1 2,-1 1,0 1,-1 2,-2 0,0 1,-2 1,-3 0,-1 0,-2 0,-3 -1,-1 -1,-1 -2,-2 0,0 0,0 -1,0 0,0 -1,0 -2,0l-1 0zm-3 10l2 -9 2 0c1,0 1,0 2,0 0,0 0,0 1,0 0,0 1,1 1,2 0,0 0,1 0,2 0,1 -1,2 -1,3 0,1 -1,1 -1,1 -1,1 -1,1 -2,1 0,0 -1,0 -1,0l-3 0z"/>
  <path id="18" class="fil1" d="M57581 -177l-1 7c0,1 0,2 1,3 0,1 1,1 3,1 1,0 2,0 3,-1 1,-1 1,-2 1,-3l1 -7 -1 0 -1 7c0,1 0,2 -1,2 0,1 -1,1 -2,1 -1,0 -2,0 -3,-1 0,0 0,-1 0,-2l1 -7 -1 0z"/>
  <polygon id="19" class="fil1" points="57591,-166 57592,-166 57593,-176 57597,-166 57599,-166 57600,-177 57599,-177 57598,-168 57593,-177 57592,-177 57591,-166 "/>
  <path id="20" class="fil1" d="M57600 -166l1 0 2 -4 5 0 1 4 1 0 -3 -11 -1 0 -6 11zm3 -5l3 -5 2 5 -5 0z"/>
  <rect class="fil2" x="57371" y="-203" width="2.65812" height="37.9163"/>
 </g>
</svg>
